<mxfile host="app.diagrams.net" modified="2021-12-12T03:18:26.831Z" agent="5.0 (Macintosh; Intel Mac OS X 10_15_7) AppleWebKit/537.36 (KHTML, like Gecko) Chrome/96.0.4664.93 Safari/537.36" etag="ENNDdzvaSbp_kHIEtkvI" version="15.9.4" type="github">
  <diagram id="TTCX6_-geniZRcMNhM9k" name="Page-1">
    <mxGraphModel dx="946" dy="541" grid="1" gridSize="10" guides="1" tooltips="1" connect="1" arrows="1" fold="1" page="1" pageScale="1" pageWidth="1100" pageHeight="850" math="0" shadow="0">
      <root>
        <mxCell id="0" />
        <mxCell id="1" parent="0" />
        <mxCell id="VQnZYBjSF4eU1Xg8U7Mv-1" value="" style="whiteSpace=wrap;html=1;aspect=fixed;sketch=1;fillColor=#f5f5f5;strokeColor=#666666;fontColor=#333333;" vertex="1" parent="1">
          <mxGeometry x="393" y="386" width="80" height="80" as="geometry" />
        </mxCell>
        <mxCell id="VQnZYBjSF4eU1Xg8U7Mv-2" value="" style="triangle;whiteSpace=wrap;html=1;sketch=1;fillColor=#f5f5f5;fontColor=#333333;strokeColor=#666666;rotation=60;" vertex="1" parent="1">
          <mxGeometry x="493" y="353" width="70" height="80" as="geometry" />
        </mxCell>
        <mxCell id="VQnZYBjSF4eU1Xg8U7Mv-3" value="" style="triangle;whiteSpace=wrap;html=1;sketch=1;fillColor=#f5f5f5;fontColor=#333333;strokeColor=#666666;rotation=0;" vertex="1" parent="1">
          <mxGeometry x="475" y="386" width="70" height="80" as="geometry" />
        </mxCell>
        <mxCell id="VQnZYBjSF4eU1Xg8U7Mv-4" value="" style="triangle;whiteSpace=wrap;html=1;sketch=1;fillColor=#f5f5f5;fontColor=#333333;strokeColor=#666666;rotation=-60;" vertex="1" parent="1">
          <mxGeometry x="493" y="418" width="70" height="80" as="geometry" />
        </mxCell>
        <mxCell id="VQnZYBjSF4eU1Xg8U7Mv-5" value="" style="triangle;whiteSpace=wrap;html=1;sketch=1;fillColor=#f5f5f5;fontColor=#333333;strokeColor=#666666;rotation=0;" vertex="1" parent="1">
          <mxGeometry x="550" y="428" width="70" height="80" as="geometry" />
        </mxCell>
        <mxCell id="VQnZYBjSF4eU1Xg8U7Mv-6" value="" style="triangle;whiteSpace=wrap;html=1;sketch=1;fillColor=#f5f5f5;fontColor=#333333;strokeColor=#666666;rotation=0;" vertex="1" parent="1">
          <mxGeometry x="550" y="342" width="70" height="80" as="geometry" />
        </mxCell>
        <mxCell id="VQnZYBjSF4eU1Xg8U7Mv-7" value="" style="triangle;whiteSpace=wrap;html=1;sketch=1;fillColor=#f5f5f5;fontColor=#333333;strokeColor=#666666;rotation=-180;" vertex="1" parent="1">
          <mxGeometry x="552" y="385" width="70" height="80" as="geometry" />
        </mxCell>
        <mxCell id="VQnZYBjSF4eU1Xg8U7Mv-8" value="" style="whiteSpace=wrap;html=1;aspect=fixed;sketch=1;fillColor=#f5f5f5;strokeColor=#666666;fontColor=#333333;" vertex="1" parent="1">
          <mxGeometry x="626" y="384" width="80" height="80" as="geometry" />
        </mxCell>
        <mxCell id="VQnZYBjSF4eU1Xg8U7Mv-9" value="" style="whiteSpace=wrap;html=1;aspect=fixed;sketch=1;fillColor=#f5f5f5;strokeColor=#666666;fontColor=#333333;rotation=30;" vertex="1" parent="1">
          <mxGeometry x="450" y="487" width="80" height="80" as="geometry" />
        </mxCell>
        <mxCell id="VQnZYBjSF4eU1Xg8U7Mv-10" value="" style="whiteSpace=wrap;html=1;aspect=fixed;sketch=1;fillColor=#f5f5f5;strokeColor=#666666;fontColor=#333333;rotation=30;" vertex="1" parent="1">
          <mxGeometry x="568" y="285" width="80" height="80" as="geometry" />
        </mxCell>
        <mxCell id="VQnZYBjSF4eU1Xg8U7Mv-11" value="" style="whiteSpace=wrap;html=1;aspect=fixed;sketch=1;fillColor=#f5f5f5;strokeColor=#666666;fontColor=#333333;rotation=-30;" vertex="1" parent="1">
          <mxGeometry x="568" y="486" width="80" height="80" as="geometry" />
        </mxCell>
        <mxCell id="VQnZYBjSF4eU1Xg8U7Mv-12" value="" style="whiteSpace=wrap;html=1;aspect=fixed;sketch=1;fillColor=#f5f5f5;strokeColor=#666666;fontColor=#333333;rotation=-30;" vertex="1" parent="1">
          <mxGeometry x="449" y="284" width="80" height="80" as="geometry" />
        </mxCell>
        <mxCell id="VQnZYBjSF4eU1Xg8U7Mv-13" value="" style="triangle;whiteSpace=wrap;html=1;sketch=1;fillColor=#f5f5f5;fontColor=#333333;strokeColor=#666666;rotation=-90;" vertex="1" parent="1">
          <mxGeometry x="514" y="508" width="70" height="80" as="geometry" />
        </mxCell>
        <mxCell id="VQnZYBjSF4eU1Xg8U7Mv-14" value="" style="triangle;whiteSpace=wrap;html=1;sketch=1;fillColor=#f5f5f5;fontColor=#333333;strokeColor=#666666;rotation=90;" vertex="1" parent="1">
          <mxGeometry x="514" y="262" width="70" height="80" as="geometry" />
        </mxCell>
        <mxCell id="VQnZYBjSF4eU1Xg8U7Mv-15" value="" style="triangle;whiteSpace=wrap;html=1;sketch=1;fillColor=#f5f5f5;fontColor=#333333;strokeColor=#666666;rotation=-150;" vertex="1" parent="1">
          <mxGeometry x="621" y="447" width="70" height="80" as="geometry" />
        </mxCell>
        <mxCell id="VQnZYBjSF4eU1Xg8U7Mv-16" value="" style="triangle;whiteSpace=wrap;html=1;sketch=1;fillColor=#f5f5f5;fontColor=#333333;strokeColor=#666666;rotation=-30;" vertex="1" parent="1">
          <mxGeometry x="406" y="448" width="70" height="80" as="geometry" />
        </mxCell>
        <mxCell id="VQnZYBjSF4eU1Xg8U7Mv-17" value="" style="triangle;whiteSpace=wrap;html=1;sketch=1;fillColor=#f5f5f5;fontColor=#333333;strokeColor=#666666;rotation=30;" vertex="1" parent="1">
          <mxGeometry x="407" y="324" width="70" height="80" as="geometry" />
        </mxCell>
        <mxCell id="VQnZYBjSF4eU1Xg8U7Mv-18" value="" style="triangle;whiteSpace=wrap;html=1;sketch=1;fillColor=#f5f5f5;fontColor=#333333;strokeColor=#666666;rotation=150;" vertex="1" parent="1">
          <mxGeometry x="622" y="323" width="70" height="80" as="geometry" />
        </mxCell>
        <mxCell id="VQnZYBjSF4eU1Xg8U7Mv-19" value="&lt;h1&gt;&lt;font face=&quot;Open Sans&quot;&gt;FM HeliTower&lt;/font&gt;&lt;/h1&gt;&lt;p&gt;&lt;font face=&quot;Open Sans&quot; data-font-src=&quot;https://fonts.googleapis.com/css?family=Open+Sans&quot;&gt;Lorem ipsum dolor sit amet, consectetur adipisicing elit, sed do eiusmod tempor incididunt ut labore et dolore magna aliqua.&lt;/font&gt;&lt;/p&gt;" style="text;html=1;strokeColor=none;fillColor=none;spacing=5;spacingTop=-20;whiteSpace=wrap;overflow=hidden;rounded=0;sketch=1;" vertex="1" parent="1">
          <mxGeometry x="10" y="20" width="190" height="120" as="geometry" />
        </mxCell>
        <mxCell id="VQnZYBjSF4eU1Xg8U7Mv-20" value="" style="triangle;whiteSpace=wrap;html=1;sketch=1;fillColor=#f5f5f5;fontColor=#333333;strokeColor=#666666;rotation=0;" vertex="1" parent="1">
          <mxGeometry x="595.5" y="185" width="70" height="80" as="geometry" />
        </mxCell>
        <mxCell id="VQnZYBjSF4eU1Xg8U7Mv-21" value="" style="triangle;whiteSpace=wrap;html=1;sketch=1;fillColor=#f5f5f5;fontColor=#333333;strokeColor=#666666;rotation=-60;" vertex="1" parent="1">
          <mxGeometry x="613.5" y="217" width="70" height="80" as="geometry" />
        </mxCell>
        <mxCell id="VQnZYBjSF4eU1Xg8U7Mv-22" value="" style="triangle;whiteSpace=wrap;html=1;sketch=1;fillColor=#f5f5f5;fontColor=#333333;strokeColor=#666666;rotation=0;" vertex="1" parent="1">
          <mxGeometry x="670.5" y="227" width="70" height="80" as="geometry" />
        </mxCell>
        <mxCell id="VQnZYBjSF4eU1Xg8U7Mv-23" value="" style="triangle;whiteSpace=wrap;html=1;sketch=1;fillColor=#f5f5f5;fontColor=#333333;strokeColor=#666666;rotation=60;" vertex="1" parent="1">
          <mxGeometry x="376.5" y="557" width="70" height="80" as="geometry" />
        </mxCell>
        <mxCell id="VQnZYBjSF4eU1Xg8U7Mv-24" value="" style="triangle;whiteSpace=wrap;html=1;sketch=1;fillColor=#f5f5f5;fontColor=#333333;strokeColor=#666666;rotation=0;" vertex="1" parent="1">
          <mxGeometry x="433.5" y="546" width="70" height="80" as="geometry" />
        </mxCell>
        <mxCell id="VQnZYBjSF4eU1Xg8U7Mv-25" value="" style="triangle;whiteSpace=wrap;html=1;sketch=1;fillColor=#f5f5f5;fontColor=#333333;strokeColor=#666666;rotation=-180;" vertex="1" parent="1">
          <mxGeometry x="435.5" y="589" width="70" height="80" as="geometry" />
        </mxCell>
        <mxCell id="VQnZYBjSF4eU1Xg8U7Mv-26" value="" style="triangle;whiteSpace=wrap;html=1;sketch=1;fillColor=#f5f5f5;fontColor=#333333;strokeColor=#666666;rotation=-210;" vertex="1" parent="1">
          <mxGeometry x="267" y="530" width="70" height="80" as="geometry" />
        </mxCell>
        <mxCell id="VQnZYBjSF4eU1Xg8U7Mv-27" value="" style="triangle;whiteSpace=wrap;html=1;sketch=1;fillColor=#f5f5f5;fontColor=#333333;strokeColor=#666666;rotation=0;" vertex="1" parent="1">
          <mxGeometry x="319" y="341" width="70" height="80" as="geometry" />
        </mxCell>
        <mxCell id="VQnZYBjSF4eU1Xg8U7Mv-28" value="" style="triangle;whiteSpace=wrap;html=1;sketch=1;fillColor=#f5f5f5;fontColor=#333333;strokeColor=#666666;rotation=-180;" vertex="1" parent="1">
          <mxGeometry x="320" y="386" width="70" height="80" as="geometry" />
        </mxCell>
        <mxCell id="VQnZYBjSF4eU1Xg8U7Mv-29" value="" style="triangle;whiteSpace=wrap;html=1;sketch=1;fillColor=#f5f5f5;fontColor=#333333;strokeColor=#666666;rotation=0;" vertex="1" parent="1">
          <mxGeometry x="318" y="431" width="70" height="80" as="geometry" />
        </mxCell>
        <mxCell id="VQnZYBjSF4eU1Xg8U7Mv-30" value="" style="triangle;whiteSpace=wrap;html=1;sketch=1;fillColor=#f5f5f5;fontColor=#333333;strokeColor=#666666;rotation=0;" vertex="1" parent="1">
          <mxGeometry x="710" y="381" width="70" height="80" as="geometry" />
        </mxCell>
        <mxCell id="VQnZYBjSF4eU1Xg8U7Mv-31" value="" style="triangle;whiteSpace=wrap;html=1;sketch=1;fillColor=#f5f5f5;fontColor=#333333;strokeColor=#666666;rotation=-180;" vertex="1" parent="1">
          <mxGeometry x="711" y="426" width="70" height="80" as="geometry" />
        </mxCell>
        <mxCell id="VQnZYBjSF4eU1Xg8U7Mv-32" value="" style="triangle;whiteSpace=wrap;html=1;sketch=1;fillColor=#f5f5f5;fontColor=#333333;strokeColor=#666666;rotation=-180;" vertex="1" parent="1">
          <mxGeometry x="711" y="337" width="70" height="80" as="geometry" />
        </mxCell>
        <mxCell id="VQnZYBjSF4eU1Xg8U7Mv-33" value="" style="triangle;whiteSpace=wrap;html=1;sketch=1;fillColor=#f5f5f5;fontColor=#333333;strokeColor=#666666;rotation=60;" vertex="1" parent="1">
          <mxGeometry x="377.5" y="236" width="70" height="80" as="geometry" />
        </mxCell>
        <mxCell id="VQnZYBjSF4eU1Xg8U7Mv-34" value="" style="triangle;whiteSpace=wrap;html=1;sketch=1;fillColor=#f5f5f5;fontColor=#333333;strokeColor=#666666;rotation=0;" vertex="1" parent="1">
          <mxGeometry x="434.5" y="225" width="70" height="80" as="geometry" />
        </mxCell>
        <mxCell id="VQnZYBjSF4eU1Xg8U7Mv-35" value="" style="triangle;whiteSpace=wrap;html=1;sketch=1;fillColor=#f5f5f5;fontColor=#333333;strokeColor=#666666;rotation=60;" vertex="1" parent="1">
          <mxGeometry x="613.5" y="554" width="70" height="80" as="geometry" />
        </mxCell>
        <mxCell id="VQnZYBjSF4eU1Xg8U7Mv-36" value="" style="triangle;whiteSpace=wrap;html=1;sketch=1;fillColor=#f5f5f5;fontColor=#333333;strokeColor=#666666;rotation=0;" vertex="1" parent="1">
          <mxGeometry x="670.5" y="543" width="70" height="80" as="geometry" />
        </mxCell>
        <mxCell id="VQnZYBjSF4eU1Xg8U7Mv-37" value="" style="triangle;whiteSpace=wrap;html=1;sketch=1;fillColor=#f5f5f5;fontColor=#333333;strokeColor=#666666;rotation=0;" vertex="1" parent="1">
          <mxGeometry x="593.5" y="587" width="70" height="80" as="geometry" />
        </mxCell>
        <mxCell id="VQnZYBjSF4eU1Xg8U7Mv-38" value="" style="triangle;whiteSpace=wrap;html=1;sketch=1;fillColor=#f5f5f5;fontColor=#333333;strokeColor=#666666;rotation=60;" vertex="1" parent="1">
          <mxGeometry x="454" y="191" width="70" height="80" as="geometry" />
        </mxCell>
        <mxCell id="VQnZYBjSF4eU1Xg8U7Mv-39" value="" style="whiteSpace=wrap;html=1;aspect=fixed;sketch=1;fillColor=#f5f5f5;strokeColor=#666666;fontColor=#333333;rotation=0;" vertex="1" parent="1">
          <mxGeometry x="510" y="589" width="80" height="80" as="geometry" />
        </mxCell>
        <mxCell id="VQnZYBjSF4eU1Xg8U7Mv-40" value="" style="whiteSpace=wrap;html=1;aspect=fixed;sketch=1;fillColor=#f5f5f5;strokeColor=#666666;fontColor=#333333;rotation=0;" vertex="1" parent="1">
          <mxGeometry x="509" y="182" width="80" height="80" as="geometry" />
        </mxCell>
        <mxCell id="VQnZYBjSF4eU1Xg8U7Mv-41" value="" style="whiteSpace=wrap;html=1;aspect=fixed;sketch=1;fillColor=#f5f5f5;strokeColor=#666666;fontColor=#333333;rotation=30;" vertex="1" parent="1">
          <mxGeometry x="335" y="283" width="80" height="80" as="geometry" />
        </mxCell>
        <mxCell id="VQnZYBjSF4eU1Xg8U7Mv-42" value="" style="whiteSpace=wrap;html=1;aspect=fixed;sketch=1;fillColor=#f5f5f5;strokeColor=#666666;fontColor=#333333;rotation=30;" vertex="1" parent="1">
          <mxGeometry x="686.5" y="485" width="80" height="80" as="geometry" />
        </mxCell>
        <mxCell id="VQnZYBjSF4eU1Xg8U7Mv-43" value="" style="whiteSpace=wrap;html=1;aspect=fixed;sketch=1;fillColor=#f5f5f5;strokeColor=#666666;fontColor=#333333;rotation=60;" vertex="1" parent="1">
          <mxGeometry x="331" y="489" width="80" height="80" as="geometry" />
        </mxCell>
        <mxCell id="VQnZYBjSF4eU1Xg8U7Mv-44" value="" style="whiteSpace=wrap;html=1;aspect=fixed;sketch=1;fillColor=#f5f5f5;strokeColor=#666666;fontColor=#333333;rotation=60;" vertex="1" parent="1">
          <mxGeometry x="686.5" y="285" width="80" height="80" as="geometry" />
        </mxCell>
      </root>
    </mxGraphModel>
  </diagram>
</mxfile>
